{
	"asset":{
		"version":"2.0",
		"generator":"Maxon Cinema 4D 2025.0.2 (#200000219)"
	},
	"scenes":[{
		"nodes":[0]
	}],
	"bufferViews":[{
		"buffer":0,
		"byteOffset":0,
		"byteLength":12,
		"target":34963
	},
	{
		"buffer":0,
		"byteOffset":12,
		"byteLength":128,
		"target":34962,
		"byteStride":32
	},
	{
		"buffer":1,
		"byteOffset":0,
		"byteLength":1596,
		"target":34963
	},
	{
		"buffer":1,
		"byteOffset":1596,
		"byteLength":1692,
		"target":34962
	},
	{
		"buffer":2,
		"byteOffset":0,
		"byteLength":31932,
		"target":34963
	},
	{
		"buffer":2,
		"byteOffset":31932,
		"byteLength":31956,
		"target":34962
	},
	{
		"buffer":3,
		"byteOffset":0,
		"byteLength":31932,
		"target":34963
	},
	{
		"buffer":3,
		"byteOffset":31932,
		"byteLength":31956,
		"target":34962
	},
	{
		"buffer":4,
		"byteOffset":0,
		"byteLength":3720,
		"target":34963
	},
	{
		"buffer":4,
		"byteOffset":3720,
		"byteLength":11680,
		"target":34962,
		"byteStride":32
	},
	{
		"buffer":5,
		"byteOffset":0,
		"byteLength":3720,
		"target":34963
	},
	{
		"buffer":5,
		"byteOffset":3720,
		"byteLength":11680,
		"target":34962,
		"byteStride":32
	},
	{
		"buffer":6,
		"byteOffset":0,
		"byteLength":3840,
		"target":34963
	},
	{
		"buffer":6,
		"byteOffset":3840,
		"byteLength":3864,
		"target":34962
	}],
	"nodes":[{
		"name":"tragaperras",
		"rotation":[0.0,
		0.0,
		0.0,
		-1.0],
		"translation":[0.0,
		10.5,
		0.0],
		"scale":[1.0,
		1.0,
		1.0],
		"children":[1,
		2,
		3,
		4,
		5]
	},
	{
		"name":"Plane",
		"mesh":0,
		"rotation":[-0.7071067690849304,
		0.0,
		0.0,
		-0.7071067690849304],
		"translation":[0.0,
		26.668685913085939,
		12.913702964782715],
		"scale":[1.0,
		1.0,
		1.0]
	},
	{
		"name":"cejas",
		"children":[6,
		7]
	},
	{
		"name":"ojos",
		"children":[8,
		9]
	},
	{
		"name":"Cube",
		"mesh":1
	},
	{
		"name":"palanca",
		"children":[10]
	},
	{
		"name":"Polygon 1",
		"mesh":2,
		"rotation":[0.0,
		0.0,
		0.0,
		-1.0],
		"translation":[-5.581076622009277,
		48.77107620239258,
		0.5235690474510193],
		"scale":[1.2699999809265137,
		1.0,
		1.3300000429153443]
	},
	{
		"name":"Polygon",
		"mesh":3,
		"rotation":[0.0,
		0.0,
		0.0,
		-1.0],
		"translation":[5.581076622009277,
		48.77107620239258,
		0.5235690474510193],
		"scale":[1.2699999809265137,
		1.0,
		1.3300000429153443]
	},
	{
		"name":"ojo 1",
		"rotation":[0.0,
		0.0,
		1.0,
		-6.123234262925839e-17],
		"translation":[-3.0999999046325685,
		-1.600000023841858,
		-4.699999809265137],
		"scale":[1.0,
		-1.0,
		1.0],
		"children":[11]
	},
	{
		"name":"ojo",
		"rotation":[0.0,
		0.0,
		0.0,
		-1.0],
		"translation":[3.0999999046325685,
		-1.600000023841858,
		-4.699999809265137],
		"scale":[1.0,
		1.0,
		1.0],
		"children":[12]
	},
	{
		"name":"Cube.1",
		"rotation":[0.0,
		0.0,
		0.0,
		-1.0],
		"translation":[22.589107513427736,
		26.4612979888916,
		0.0],
		"scale":[1.0,
		1.0,
		1.0],
		"children":[13]
	},
	{
		"name":"ojo 1",
		"mesh":4,
		"rotation":[0.0,
		0.0,
		1.0,
		-6.123234262925839e-17],
		"translation":[5.595247233743626e-15,
		44.38765335083008,
		18.200000762939454],
		"scale":[1.0499999523162842,
		-0.9399999976158142,
		0.2800000011920929]
	},
	{
		"name":"ojo",
		"mesh":5,
		"rotation":[0.0,
		0.0,
		0.0,
		-1.0],
		"translation":[0.0,
		44.38765335083008,
		18.200000762939454],
		"scale":[1.0499999523162842,
		0.9399999976158142,
		0.2800000011920929]
	},
	{
		"name":"Cube.1",
		"mesh":6
	}],
	"meshes":[{
		"name":"Plane",
		"primitives":[{
			"attributes":{
				"POSITION":1,
				"NORMAL":2,
				"TEXCOORD_0":3
			},
			"indices":0,
			"material":0
		}]
	},
	{
		"name":"Cube",
		"primitives":[{
			"attributes":{
				"POSITION":5
			},
			"indices":4,
			"material":1
		}]
	},
	{
		"name":"Polygon 1",
		"primitives":[{
			"attributes":{
				"POSITION":7
			},
			"indices":6,
			"material":2
		}]
	},
	{
		"name":"Polygon",
		"primitives":[{
			"attributes":{
				"POSITION":9
			},
			"indices":8,
			"material":2
		}]
	},
	{
		"name":"ojo 1",
		"primitives":[{
			"attributes":{
				"POSITION":11,
				"NORMAL":12,
				"TEXCOORD_0":13
			},
			"indices":10,
			"material":2
		}]
	},
	{
		"name":"ojo",
		"primitives":[{
			"attributes":{
				"POSITION":15,
				"NORMAL":16,
				"TEXCOORD_0":17
			},
			"indices":14,
			"material":2
		}]
	},
	{
		"name":"Cube.1",
		"primitives":[{
			"attributes":{
				"POSITION":19
			},
			"indices":18,
			"material":2
		}]
	}],
	"accessors":[{
		"bufferView":0,
		"type":"SCALAR",
		"componentType":5123,
		"count":6,
		"byteOffset":0,
		"min":[0],
		"max":[3]
	},
	{
		"bufferView":1,
		"type":"VEC3",
		"componentType":5126,
		"count":4,
		"byteOffset":0,
		"min":[-11.46951961517334,
		0.0,
		-11.46951961517334],
		"max":[11.46951961517334,
		0.0,
		11.46951961517334]
	},
	{
		"bufferView":1,
		"type":"VEC3",
		"componentType":5126,
		"count":4,
		"byteOffset":12,
		"min":[0.0,
		1.0,
		0.0],
		"max":[0.0,
		1.0,
		0.0]
	},
	{
		"bufferView":1,
		"type":"VEC2",
		"componentType":5126,
		"count":4,
		"byteOffset":24,
		"min":[0.0,
		0.0],
		"max":[1.0,
		1.0]
	},
	{
		"bufferView":2,
		"type":"SCALAR",
		"componentType":5123,
		"count":798,
		"byteOffset":0,
		"min":[0],
		"max":[140]
	},
	{
		"bufferView":3,
		"type":"VEC3",
		"componentType":5126,
		"count":141,
		"byteOffset":0,
		"min":[-12.5,
		-10.0,
		-12.5],
		"max":[12.869999885559082,
		48.0,
		12.5]
	},
	{
		"bufferView":4,
		"type":"SCALAR",
		"componentType":5123,
		"count":15966,
		"byteOffset":0,
		"min":[0],
		"max":[2662]
	},
	{
		"bufferView":5,
		"type":"VEC3",
		"componentType":5126,
		"count":2663,
		"byteOffset":0,
		"min":[-1.4123541116714478,
		-2.8890058994293215,
		9.157934188842774],
		"max":[3.6332693099975588,
		1.0556212663650513,
		10.962149620056153]
	},
	{
		"bufferView":6,
		"type":"SCALAR",
		"componentType":5123,
		"count":15966,
		"byteOffset":0,
		"min":[0],
		"max":[2662]
	},
	{
		"bufferView":7,
		"type":"VEC3",
		"componentType":5126,
		"count":2663,
		"byteOffset":0,
		"min":[-3.6332693099975588,
		-2.8890058994293215,
		9.157934188842774],
		"max":[1.4123541116714478,
		1.0556212663650513,
		10.962149620056153]
	},
	{
		"bufferView":8,
		"type":"SCALAR",
		"componentType":5123,
		"count":1860,
		"byteOffset":0,
		"min":[0],
		"max":[364]
	},
	{
		"bufferView":9,
		"type":"VEC3",
		"componentType":5126,
		"count":365,
		"byteOffset":0,
		"min":[-2.11913800239563,
		-4.504001140594482,
		-2.0931930541992189],
		"max":[1.5203319787979127,
		4.504001140594482,
		2.073206663131714]
	},
	{
		"bufferView":9,
		"type":"VEC3",
		"componentType":5126,
		"count":365,
		"byteOffset":12,
		"min":[-0.9995595216751099,
		-1.0,
		-0.9945272207260132],
		"max":[1.0,
		1.0,
		0.9968000054359436]
	},
	{
		"bufferView":9,
		"type":"VEC2",
		"componentType":5126,
		"count":365,
		"byteOffset":24,
		"min":[0.0,
		0.01904641091823578],
		"max":[1.0,
		0.980953574180603]
	},
	{
		"bufferView":10,
		"type":"SCALAR",
		"componentType":5123,
		"count":1860,
		"byteOffset":0,
		"min":[0],
		"max":[364]
	},
	{
		"bufferView":11,
		"type":"VEC3",
		"componentType":5126,
		"count":365,
		"byteOffset":0,
		"min":[-1.5203319787979127,
		-4.504001140594482,
		-2.0931930541992189],
		"max":[2.11913800239563,
		4.504001140594482,
		2.073206663131714]
	},
	{
		"bufferView":11,
		"type":"VEC3",
		"componentType":5126,
		"count":365,
		"byteOffset":12,
		"min":[-1.0,
		-1.0,
		-0.9945272207260132],
		"max":[0.9995595216751099,
		1.0,
		0.9968000054359436]
	},
	{
		"bufferView":11,
		"type":"VEC2",
		"componentType":5126,
		"count":365,
		"byteOffset":24,
		"min":[0.0,
		0.01904641091823578],
		"max":[1.0,
		0.980953574180603]
	},
	{
		"bufferView":12,
		"type":"SCALAR",
		"componentType":5123,
		"count":1920,
		"byteOffset":0,
		"min":[0],
		"max":[321]
	},
	{
		"bufferView":13,
		"type":"VEC3",
		"componentType":5126,
		"count":322,
		"byteOffset":0,
		"min":[-10.923663139343262,
		1.6521921157836915,
		0.02721306122839451],
		"max":[-3.587198495864868,
		20.719282150268556,
		11.03777027130127]
	}],
	"buffers":[{
		"uri":"data:application/octet-stream;base64,",
		"byteLength":140
	},
	{
		"uri":"data:application/octet-stream;base64,",
		"byteLength":3288
	},
	{
		"uri":"data:application/octet-stream;base64,",
		"byteLength":63888
	},
	{
		"uri":"data:application/octet-stream;base64,",
		"byteLength":63888
	},
	{
		"uri":"data:application/octet-stream;base64,",
		"byteLength":15400
	},
	{
		"uri":"data:application/octet-stream;base64,",
		"byteLength":15400
	},
	{
		"uri":"data:application/octet-stream;base64,",
		"byteLength":7704
	}],
	"materials":[{
		"pbrMetallicRoughness":{
			"baseColorFactor":[1.0,
			1.0,
			1.0,
			1.0],
			"metallicFactor":0.0,
			"roughnessFactor":0.20000000298023225
		},
		"emissiveFactor":[0.0,
		0.0,
		0.0],
		"alphaMode":"OPAQUE",
		"doubleSided":true,
		"name":"Mat"
	},
	{
		"pbrMetallicRoughness":{
			"baseColorFactor":[0.6402877697841726,
			0.046063868329796597,
			0.046063868329796597,
			1.0],
			"metallicFactor":0.1500000071246177,
			"roughnessFactor":0.20000000298023225
		},
		"emissiveFactor":[0.0,
		0.0,
		0.0],
		"alphaMode":"OPAQUE",
		"doubleSided":true,
		"name":"Mat.1"
	},
	{
		"pbrMetallicRoughness":{
			"baseColorFactor":[0.0,
			0.0,
			0.0,
			1.0],
			"metallicFactor":0.0,
			"roughnessFactor":0.20000000298023225
		},
		"emissiveFactor":[0.0,
		0.0,
		0.0],
		"alphaMode":"OPAQUE",
		"doubleSided":true,
		"name":"Mat.3"
	}]
}